<?xml version="1.0" encoding="UTF-8" standalone="no"?>
<!-- Created with Inkscape (http://www.inkscape.org/) -->

<svg
   width="800"
   height="500"
   viewBox="0 0 211.66667 132.29167"
   version="1.1"
   id="svg8"
   sodipodi:docname="bg.svg"
   inkscape:version="1.2.1 (9c6d41e410, 2022-07-14)"
   inkscape:export-filename="/home/alevy/graphisme/chaton/cat.png"
   inkscape:export-xdpi="79.32901"
   inkscape:export-ydpi="79.32901"
   xmlns:inkscape="http://www.inkscape.org/namespaces/inkscape"
   xmlns:sodipodi="http://sodipodi.sourceforge.net/DTD/sodipodi-0.dtd"
   xmlns="http://www.w3.org/2000/svg"
   xmlns:svg="http://www.w3.org/2000/svg"
   xmlns:rdf="http://www.w3.org/1999/02/22-rdf-syntax-ns#"
   xmlns:cc="http://creativecommons.org/ns#"
   xmlns:dc="http://purl.org/dc/elements/1.1/">
  <defs
     id="defs2">
    <marker
       inkscape:isstock="true"
       style="overflow:visible"
       id="marker3187"
       refX="0"
       refY="0"
       orient="auto"
       inkscape:stockid="DotS">
      <path
         transform="matrix(0.2,0,0,0.2,1.48,0.2)"
         style="fill:#ffffff;fill-opacity:1;fill-rule:evenodd;stroke:#ffffff;stroke-width:1pt;stroke-opacity:1"
         d="m -2.5,-1 c 0,2.76 -2.24,5 -5,5 -2.76,0 -5,-2.24 -5,-5 0,-2.76 2.24,-5 5,-5 2.76,0 5,2.24 5,5 z"
         id="path3185" />
    </marker>
    <marker
       inkscape:isstock="true"
       style="overflow:visible"
       id="marker3051"
       refX="0"
       refY="0"
       orient="auto"
       inkscape:stockid="DotS">
      <path
         transform="matrix(0.2,0,0,0.2,1.48,0.2)"
         style="fill:#ffffff;fill-opacity:1;fill-rule:evenodd;stroke:#ffffff;stroke-width:1pt;stroke-opacity:1"
         d="m -2.5,-1 c 0,2.76 -2.24,5 -5,5 -2.76,0 -5,-2.24 -5,-5 0,-2.76 2.24,-5 5,-5 2.76,0 5,2.24 5,5 z"
         id="path3049" />
    </marker>
    <marker
       inkscape:isstock="true"
       style="overflow:visible"
       id="marker2921"
       refX="0"
       refY="0"
       orient="auto"
       inkscape:stockid="DotS">
      <path
         transform="matrix(0.2,0,0,0.2,1.48,0.2)"
         style="fill:#ffffff;fill-opacity:1;fill-rule:evenodd;stroke:#ffffff;stroke-width:1pt;stroke-opacity:1"
         d="m -2.5,-1 c 0,2.76 -2.24,5 -5,5 -2.76,0 -5,-2.24 -5,-5 0,-2.76 2.24,-5 5,-5 2.76,0 5,2.24 5,5 z"
         id="path2919" />
    </marker>
    <marker
       inkscape:isstock="true"
       style="overflow:visible"
       id="marker2797"
       refX="0"
       refY="0"
       orient="auto"
       inkscape:stockid="DotS">
      <path
         transform="matrix(0.2,0,0,0.2,1.48,0.2)"
         style="fill:#ffffff;fill-opacity:1;fill-rule:evenodd;stroke:#ffffff;stroke-width:1pt;stroke-opacity:1"
         d="m -2.5,-1 c 0,2.76 -2.24,5 -5,5 -2.76,0 -5,-2.24 -5,-5 0,-2.76 2.24,-5 5,-5 2.76,0 5,2.24 5,5 z"
         id="path2795" />
    </marker>
    <marker
       inkscape:isstock="true"
       style="overflow:visible"
       id="marker2679"
       refX="0"
       refY="0"
       orient="auto"
       inkscape:stockid="DotS">
      <path
         transform="matrix(0.2,0,0,0.2,1.48,0.2)"
         style="fill:#ffffff;fill-opacity:1;fill-rule:evenodd;stroke:#ffffff;stroke-width:1pt;stroke-opacity:1"
         d="m -2.5,-1 c 0,2.76 -2.24,5 -5,5 -2.76,0 -5,-2.24 -5,-5 0,-2.76 2.24,-5 5,-5 2.76,0 5,2.24 5,5 z"
         id="path2677" />
    </marker>
    <marker
       inkscape:isstock="true"
       style="overflow:visible"
       id="marker2567"
       refX="0"
       refY="0"
       orient="auto"
       inkscape:stockid="DotS">
      <path
         transform="matrix(0.2,0,0,0.2,1.48,0.2)"
         style="fill:#ffffff;fill-opacity:1;fill-rule:evenodd;stroke:#ffffff;stroke-width:1pt;stroke-opacity:1"
         d="m -2.5,-1 c 0,2.76 -2.24,5 -5,5 -2.76,0 -5,-2.24 -5,-5 0,-2.76 2.24,-5 5,-5 2.76,0 5,2.24 5,5 z"
         id="path2565" />
    </marker>
    <marker
       inkscape:isstock="true"
       style="overflow:visible"
       id="marker2557"
       refX="0"
       refY="0"
       orient="auto"
       inkscape:stockid="DotS">
      <path
         transform="matrix(0.2,0,0,0.2,1.48,0.2)"
         style="fill:#ffffff;fill-opacity:1;fill-rule:evenodd;stroke:#ffffff;stroke-width:1pt;stroke-opacity:1"
         d="m -2.5,-1 c 0,2.76 -2.24,5 -5,5 -2.76,0 -5,-2.24 -5,-5 0,-2.76 2.24,-5 5,-5 2.76,0 5,2.24 5,5 z"
         id="path2555" />
    </marker>
    <marker
       inkscape:isstock="true"
       style="overflow:visible"
       id="marker2341"
       refX="0"
       refY="0"
       orient="auto"
       inkscape:stockid="DotM">
      <path
         transform="matrix(0.4,0,0,0.4,2.96,0.4)"
         style="fill:#ffffff;fill-opacity:1;fill-rule:evenodd;stroke:#ffffff;stroke-width:1pt;stroke-opacity:1"
         d="m -2.5,-1 c 0,2.76 -2.24,5 -5,5 -2.76,0 -5,-2.24 -5,-5 0,-2.76 2.24,-5 5,-5 2.76,0 5,2.24 5,5 z"
         id="path2339" />
    </marker>
    <marker
       inkscape:isstock="true"
       style="overflow:visible"
       id="marker2247"
       refX="0"
       refY="0"
       orient="auto"
       inkscape:stockid="DotM">
      <path
         transform="matrix(0.4,0,0,0.4,2.96,0.4)"
         style="fill:#ffffff;fill-opacity:1;fill-rule:evenodd;stroke:#ffffff;stroke-width:1pt;stroke-opacity:1"
         d="m -2.5,-1 c 0,2.76 -2.24,5 -5,5 -2.76,0 -5,-2.24 -5,-5 0,-2.76 2.24,-5 5,-5 2.76,0 5,2.24 5,5 z"
         id="path2245" />
    </marker>
    <marker
       inkscape:isstock="true"
       style="overflow:visible"
       id="marker2159"
       refX="0"
       refY="0"
       orient="auto"
       inkscape:stockid="DotM">
      <path
         transform="matrix(0.4,0,0,0.4,2.96,0.4)"
         style="fill:#ffffff;fill-opacity:1;fill-rule:evenodd;stroke:#ffffff;stroke-width:1pt;stroke-opacity:1"
         d="m -2.5,-1 c 0,2.76 -2.24,5 -5,5 -2.76,0 -5,-2.24 -5,-5 0,-2.76 2.24,-5 5,-5 2.76,0 5,2.24 5,5 z"
         id="path2157" />
    </marker>
    <marker
       inkscape:isstock="true"
       style="overflow:visible"
       id="marker2076"
       refX="0"
       refY="0"
       orient="auto"
       inkscape:stockid="DotM">
      <path
         transform="matrix(0.4,0,0,0.4,2.96,0.4)"
         style="fill:#ffffff;fill-opacity:1;fill-rule:evenodd;stroke:#ffffff;stroke-width:1pt;stroke-opacity:1"
         d="m -2.5,-1 c 0,2.76 -2.24,5 -5,5 -2.76,0 -5,-2.24 -5,-5 0,-2.76 2.24,-5 5,-5 2.76,0 5,2.24 5,5 z"
         id="path2074" />
    </marker>
    <marker
       inkscape:isstock="true"
       style="overflow:visible"
       id="marker2000"
       refX="0"
       refY="0"
       orient="auto"
       inkscape:stockid="DotM">
      <path
         transform="matrix(0.4,0,0,0.4,2.96,0.4)"
         style="fill:#ffffff;fill-opacity:1;fill-rule:evenodd;stroke:#ffffff;stroke-width:1pt;stroke-opacity:1"
         d="m -2.5,-1 c 0,2.76 -2.24,5 -5,5 -2.76,0 -5,-2.24 -5,-5 0,-2.76 2.24,-5 5,-5 2.76,0 5,2.24 5,5 z"
         id="path1998" />
    </marker>
    <marker
       inkscape:isstock="true"
       style="overflow:visible"
       id="marker1930"
       refX="0"
       refY="0"
       orient="auto"
       inkscape:stockid="DotM">
      <path
         transform="matrix(0.4,0,0,0.4,2.96,0.4)"
         style="fill:#ffffff;fill-opacity:1;fill-rule:evenodd;stroke:#ffffff;stroke-width:1pt;stroke-opacity:1"
         d="m -2.5,-1 c 0,2.76 -2.24,5 -5,5 -2.76,0 -5,-2.24 -5,-5 0,-2.76 2.24,-5 5,-5 2.76,0 5,2.24 5,5 z"
         id="path1928" />
    </marker>
    <marker
       inkscape:isstock="true"
       style="overflow:visible"
       id="marker1866"
       refX="0"
       refY="0"
       orient="auto"
       inkscape:stockid="DotM">
      <path
         transform="matrix(0.4,0,0,0.4,2.96,0.4)"
         style="fill:#ffffff;fill-opacity:1;fill-rule:evenodd;stroke:#ffffff;stroke-width:1pt;stroke-opacity:1"
         d="m -2.5,-1 c 0,2.76 -2.24,5 -5,5 -2.76,0 -5,-2.24 -5,-5 0,-2.76 2.24,-5 5,-5 2.76,0 5,2.24 5,5 z"
         id="path1864" />
    </marker>
    <marker
       inkscape:isstock="true"
       style="overflow:visible"
       id="marker1730"
       refX="0"
       refY="0"
       orient="auto"
       inkscape:stockid="DotL">
      <path
         transform="matrix(0.8,0,0,0.8,5.92,0.8)"
         style="fill:#ffffff;fill-opacity:1;fill-rule:evenodd;stroke:#ffffff;stroke-width:1pt;stroke-opacity:1"
         d="m -2.5,-1 c 0,2.76 -2.24,5 -5,5 -2.76,0 -5,-2.24 -5,-5 0,-2.76 2.24,-5 5,-5 2.76,0 5,2.24 5,5 z"
         id="path1728" />
    </marker>
    <marker
       inkscape:isstock="true"
       style="overflow:visible"
       id="marker1614"
       refX="0"
       refY="0"
       orient="auto"
       inkscape:stockid="DotL">
      <path
         transform="matrix(0.8,0,0,0.8,5.92,0.8)"
         style="fill:#ffffff;fill-opacity:1;fill-rule:evenodd;stroke:#ffffff;stroke-width:1pt;stroke-opacity:1"
         d="m -2.5,-1 c 0,2.76 -2.24,5 -5,5 -2.76,0 -5,-2.24 -5,-5 0,-2.76 2.24,-5 5,-5 2.76,0 5,2.24 5,5 z"
         id="path1612" />
    </marker>
    <marker
       inkscape:isstock="true"
       style="overflow:visible"
       id="marker1568"
       refX="0"
       refY="0"
       orient="auto"
       inkscape:stockid="DotL">
      <path
         transform="matrix(0.8,0,0,0.8,5.92,0.8)"
         style="fill:#ffffff;fill-opacity:1;fill-rule:evenodd;stroke:#ffffff;stroke-width:1pt;stroke-opacity:1"
         d="m -2.5,-1 c 0,2.76 -2.24,5 -5,5 -2.76,0 -5,-2.24 -5,-5 0,-2.76 2.24,-5 5,-5 2.76,0 5,2.24 5,5 z"
         id="path1566" />
    </marker>
    <marker
       inkscape:isstock="true"
       style="overflow:visible"
       id="marker1528"
       refX="0"
       refY="0"
       orient="auto"
       inkscape:stockid="DotL">
      <path
         transform="matrix(0.8,0,0,0.8,5.92,0.8)"
         style="fill:#ffffff;fill-opacity:1;fill-rule:evenodd;stroke:#ffffff;stroke-width:1pt;stroke-opacity:1"
         d="m -2.5,-1 c 0,2.76 -2.24,5 -5,5 -2.76,0 -5,-2.24 -5,-5 0,-2.76 2.24,-5 5,-5 2.76,0 5,2.24 5,5 z"
         id="path1526" />
    </marker>
    <marker
       inkscape:isstock="true"
       style="overflow:visible"
       id="marker1493"
       refX="0"
       refY="0"
       orient="auto"
       inkscape:stockid="DotL">
      <path
         transform="matrix(0.8,0,0,0.8,5.92,0.8)"
         style="fill:#ffffff;fill-opacity:1;fill-rule:evenodd;stroke:#ffffff;stroke-width:1pt;stroke-opacity:1"
         d="m -2.5,-1 c 0,2.76 -2.24,5 -5,5 -2.76,0 -5,-2.24 -5,-5 0,-2.76 2.24,-5 5,-5 2.76,0 5,2.24 5,5 z"
         id="path1491" />
    </marker>
    <marker
       inkscape:isstock="true"
       style="overflow:visible"
       id="marker1465"
       refX="0"
       refY="0"
       orient="auto"
       inkscape:stockid="DotL">
      <path
         transform="matrix(0.8,0,0,0.8,5.92,0.8)"
         style="fill:#ffffff;fill-opacity:1;fill-rule:evenodd;stroke:#ffffff;stroke-width:1pt;stroke-opacity:1"
         d="m -2.5,-1 c 0,2.76 -2.24,5 -5,5 -2.76,0 -5,-2.24 -5,-5 0,-2.76 2.24,-5 5,-5 2.76,0 5,2.24 5,5 z"
         id="path1463" />
    </marker>
    <marker
       inkscape:isstock="true"
       style="overflow:visible"
       id="marker1442"
       refX="0"
       refY="0"
       orient="auto"
       inkscape:stockid="DotL">
      <path
         transform="matrix(0.8,0,0,0.8,5.92,0.8)"
         style="fill:#ffffff;fill-opacity:1;fill-rule:evenodd;stroke:#ffffff;stroke-width:1pt;stroke-opacity:1"
         d="m -2.5,-1 c 0,2.76 -2.24,5 -5,5 -2.76,0 -5,-2.24 -5,-5 0,-2.76 2.24,-5 5,-5 2.76,0 5,2.24 5,5 z"
         id="path1440" />
    </marker>
    <inkscape:path-effect
       effect="bspline"
       id="path-effect1638"
       is_visible="true"
       weight="33.333333"
       steps="2"
       helper_size="0"
       apply_no_weight="true"
       apply_with_weight="true"
       only_selected="false"
       lpeversion="0" />
    <inkscape:path-effect
       effect="bspline"
       id="path-effect1537"
       is_visible="true"
       weight="33.333333"
       steps="2"
       helper_size="0"
       apply_no_weight="true"
       apply_with_weight="true"
       only_selected="false"
       lpeversion="0" />
    <inkscape:path-effect
       effect="bspline"
       id="path-effect1445"
       is_visible="true"
       weight="33.333333"
       steps="2"
       helper_size="0"
       apply_no_weight="true"
       apply_with_weight="true"
       only_selected="false"
       lpeversion="0" />
    <inkscape:path-effect
       effect="bspline"
       id="path-effect1341"
       is_visible="true"
       weight="33.333333"
       steps="2"
       helper_size="0"
       apply_no_weight="true"
       apply_with_weight="true"
       only_selected="false"
       lpeversion="0" />
    <inkscape:path-effect
       effect="bspline"
       id="path-effect1333"
       is_visible="true"
       weight="33.333333"
       steps="2"
       helper_size="0"
       apply_no_weight="true"
       apply_with_weight="true"
       only_selected="false"
       lpeversion="0" />
    <inkscape:path-effect
       effect="bspline"
       id="path-effect1327"
       is_visible="true"
       weight="33.333333"
       steps="2"
       helper_size="0"
       apply_no_weight="true"
       apply_with_weight="true"
       only_selected="false"
       lpeversion="0" />
    <inkscape:path-effect
       effect="bspline"
       id="path-effect1319"
       is_visible="true"
       weight="33.333333"
       steps="2"
       helper_size="0"
       apply_no_weight="true"
       apply_with_weight="true"
       only_selected="false"
       lpeversion="0" />
    <inkscape:path-effect
       effect="bspline"
       id="path-effect1295"
       is_visible="true"
       weight="33.333333"
       steps="2"
       helper_size="0"
       apply_no_weight="true"
       apply_with_weight="true"
       only_selected="false"
       lpeversion="0" />
  </defs>
  <sodipodi:namedview
     id="base"
     pagecolor="#ffffff"
     bordercolor="#666666"
     borderopacity="1.0"
     inkscape:pageopacity="0.0"
     inkscape:pageshadow="2"
     inkscape:zoom="0.76922279"
     inkscape:cx="230.75239"
     inkscape:cy="480.35498"
     inkscape:document-units="px"
     inkscape:current-layer="g2150"
     showgrid="false"
     units="px"
     inkscape:snap-bbox="true"
     inkscape:snap-global="false"
     inkscape:window-width="2558"
     inkscape:window-height="1417"
     inkscape:window-x="0"
     inkscape:window-y="0"
     inkscape:window-maximized="1"
     showguides="false"
     inkscape:showpageshadow="2"
     inkscape:pagecheckerboard="0"
     inkscape:deskcolor="#d1d1d1" />
  <metadata
     id="metadata5">
    <rdf:RDF>
      <cc:Work
         rdf:about="">
        <dc:format>image/svg+xml</dc:format>
        <dc:type
           rdf:resource="http://purl.org/dc/dcmitype/StillImage" />
      </cc:Work>
    </rdf:RDF>
  </metadata>
  <g
     style="display:inline"
     inkscape:label="pico_simple"
     id="g2252"
     inkscape:groupmode="layer"
     transform="translate(15.987866,11.40495)">
    <g
       style="display:inline;opacity:1"
       id="g2150"
       inkscape:groupmode="layer"
       inkscape:label="main">
      <path
         id="path2102"
         style="fill:#333333;fill-opacity:1;stroke:none;stroke-width:0.377976;stroke-linecap:square;stroke-linejoin:bevel;stroke-miterlimit:4;stroke-dasharray:none;stroke-dashoffset:0;stroke-opacity:1;paint-order:markers fill stroke"
         d="m 152.76127,1.9491353 c -0.13241,-6.4e-5 -0.26853,0.0052 -0.40824,0.01654 -8.83724,1.159478 -16.42392,6.378206 -24.35614,10.0794877 -5.79927,2.694247 -10.84408,7.64135 -17.59789,7.65483 -9.31404,1.915142 -18.900069,0.277311 -28.323336,1.25212 -5.59946,0.774813 -11.198234,0.137624 -16.663583,-1.100191 -6.94984,-0.0465 -11.826889,-5.705895 -17.787545,-8.439795 C 40.995085,8.2452583 34.760072,3.3450523 27.178755,2.9278903 c -4.836556,3.0288 -2.331801,10.6651517 -2.257743,15.5277347 1.734043,10.02879 4.224037,20.747276 11.487671,28.315068 -2.596297,5.355308 -2.783923,11.685134 -3.717603,17.526042 -1.267599,8.487122 0.626054,17.616949 6.68073,23.949909 6.003,6.1016 13.868961,11.72374 22.796542,11.48508 4.335645,-0.36758 3.143942,-0.87273 2.20865,-4.80074 -0.64179,-2.69535 1.108333,-8.3385 0.224793,-2.61327 -0.951594,6.1662 6.71365,11.064136 12.455571,10.598826 5.46309,1.79888 13.143335,-3.883536 13.654464,-5.976886 2.672628,5.689576 11.44812,6.620256 16.42019,5.084956 4.50039,-1.38966 10.42637,-7.297966 6.31796,-11.995136 3.72122,2.39591 0.38674,6.75331 -0.16795,8.52765 6.50416,0.90076 13.1235,-1.18399 18.84484,-4.21215 6.06631,-1.96987 11.14281,-6.55403 15.22078,-11.36261 3.63564,-4.7056 3.78002,-10.797614 3.10885,-16.441851 -0.16378,-7.168427 -1.52437,-14.400404 -3.22771,-21.236914 7.90749,-9.659628 10.90786,-22.590348 10.62881,-34.859888 -0.34532,-3.1481207 -0.99163,-8.4925817 -5.09633,-8.4945727 z m 0.0357,6.459038 c 0.62402,-0.008 0.72677,0.131354 1.00459,0.565857 2.24511,3.5113407 0.69745,16.3872337 -3.13159,26.0557737 -1.18483,2.991777 -2.79942,5.865464 -3.90002,6.941696 l -0.66921,0.65474 -7.61607,-6.881234 c -4.1889,-3.784737 -9.30576,-8.390398 -11.37037,-10.234517 -2.06459,-1.844116 -3.75636,-3.406795 -3.75998,-3.472657 -0.0118,-0.214736 12.40534,-7.735678 15.28486,-9.257833 4.92136,-2.601481 8.91442,-3.9255647 12.91807,-4.2834587 0.5647,-0.05048 0.95607,-0.08473 1.23972,-0.08837 z M 29.182251,10.018411 c 1.181306,-0.0038 5.760306,0.952026 7.686869,1.604553 3.133248,1.061233 7.710707,3.436626 13.743348,7.132381 6.575466,4.028308 7.036405,4.332895 7.03988,4.648295 0.0025,0.233444 -21.251161,19.536238 -21.685498,19.694923 -0.107984,0.03945 -0.663541,-0.577148 -1.234034,-1.370459 -4.594892,-6.389541 -8.532898,-22.117435 -7.257955,-28.986345 0.277557,-1.495371 1.046049,-2.721202 1.70739,-2.723348 z m 34.498153,39.710755 c 0.207271,-7.16e-4 0.415612,0.0028 0.624768,0.01085 8.737373,-0.161047 15.66113,9.474648 12.715503,17.719291 -0.206812,3.847639 0.540265,8.304247 -5.032767,7.398487 -5.370696,2.90983 -12.560021,3.02873 -17.207736,-1.37201 -4.424222,-3.670819 -5.274219,-9.948883 -3.918624,-15.197969 -0.337868,-2.364048 -0.390431,-3.405088 -0.973584,-6.680729 2.371272,-0.277702 2.852482,-0.422236 4.634343,-0.604098 3.138107,-0.320283 6.04904,-1.263092 9.158097,-1.273824 z m 52.123436,0.02791 c 4.52164,1.058085 9.35079,0.930633 13.90199,1.850017 -0.78578,3.81454 -1.35223,4.934169 -1.07538,6.012553 1.17892,4.592011 1.86996,9.283404 -1.04283,13.152103 -4.33259,5.754445 -12.43292,7.972825 -18.58595,4.419875 -5.25393,0.005 -6.50852,-2.413557 -5.91437,-7.31477 -3.13731,-8.435415 3.67384,-18.29491 12.71654,-18.119778 z m -0.29611,1.467611 c -8.21339,0.06578 -14.14647,9.841476 -10.39058,17.213894 3.23858,7.870563 15.06324,9.532623 20.23598,2.702145 5.54891,-6.225474 2.28915,-17.238251 -5.80378,-19.397208 -1.04711,-0.325031 -2.14316,-0.497719 -3.24012,-0.494543 -0.26944,-0.01849 -0.53655,-0.02641 -0.8015,-0.02429 z m -51.799421,0.0088 C 54.98141,51.031415 48.89354,61.66897 53.327031,69.125348 c 3.695671,7.700326 15.60802,8.487216 20.343461,1.385951 5.316344,-6.700811 0.997834,-17.89216 -7.545276,-19.113501 -0.796342,-0.173892 -1.60912,-0.146957 -2.416907,-0.164331 z m 0.901754,1.781803 c 7.535519,0.245088 12.440285,9.931554 7.824329,16.104398 -4.092104,6.741766 -15.353979,5.646486 -18.075383,-1.753891 -2.978081,-6.554321 2.308093,-14.538733 9.513631,-14.344306 0.248325,-0.01218 0.494342,-0.01411 0.737423,-0.0062 z m 52.271747,0.0155 c 7.53551,0.245092 12.44028,9.931564 7.82433,16.104398 -4.09211,6.741766 -15.35398,5.646506 -18.07538,-1.753891 -2.97809,-6.554321 2.30808,-14.538733 9.51363,-14.344306 0.24832,-0.01218 0.49434,-0.01411 0.73742,-0.0062 z M 92.299847,83.931654 c 3.770799,-0.0166 10.145703,0.56491 4.786273,4.09329 -2.783544,2.44039 -5.933856,10.60065 -9.399945,4.115 -1.393871,-3.2088 -11.739091,-7.61608 -3.074748,-7.87446 2.08369,-0.21248 4.180133,-0.29477 6.273519,-0.29714 0.390593,-0.0199 0.876214,-0.0343 1.414901,-0.0367 z" />
    </g>
  </g>
</svg>
